<svg xmlns="http://www.w3.org/2000/svg" width="48" height="40" fill="none"><g clip-path="url(#a)"><path fill="url(#b)" fill-rule="evenodd" d="M11.018 32.553c-4.333 1.072-7.672.945-9.156-.644a2.639 2.639 0 0 1-.31-.397c-.173 1.202.05 2.212.756 2.959 1.654 1.768 5.613 1.734 10.693.235 4.377 4.064 10.55 6.065 16.867 4.86 10.532-2.01 17.442-12.18 15.435-22.712a19.648 19.648 0 0 0-.84-3.06c2.82-3.662 3.92-6.815 2.69-8.686-.276 1.85-1.525 4.148-3.563 6.672a19.3 19.3 0 0 0-6.681-7.502c-5.4 1.605-12.038 4.857-18.55 9.342-4.553 3.132-8.428 6.431-11.352 9.55.04.323.09.642.152.96a19.353 19.353 0 0 0 3.86 8.423Z" clip-rule="evenodd"/><path fill="#fff" d="M29.015 29.1v-.788c.536-.108.936-.226 1.2-.353a1.32 1.32 0 0 0 .588-.539c.13-.229.192-.539.192-.926 0-.365-.044-.759-.13-1.183a15.539 15.539 0 0 0-.37-1.425l-.594-2.075h-7.5l-.547 1.576c-.28.793-.462 1.394-.549 1.803a5.37 5.37 0 0 0-.13 1.109c0 .644.164 1.115.49 1.416.328.3.827.498 1.505.594v.787h-6.864v-.787c.6-.096 1.124-.446 1.567-1.047.446-.6.877-1.459 1.295-2.574l6.71-17.811h2.543l5.47 17.941c.257.837.486 1.475.684 1.915.199.44.437.783.716 1.028.279.248.66.43 1.143.548v.787h-7.419v.003Zm-6.176-8.687h6.725l-3.058-10.377-3.667 10.377Z"/><path fill="#030306" fill-rule="evenodd" d="M6.852 19.29C1.36 24.873-1.227 29.981.56 32.605c.622-4.752 7.34-12.484 17.368-19.37C30.601 4.514 43.745.434 47.295 4.114c.12.127.232.263.331.403.164-1.255-.1-2.308-.843-3.083-2.053-2.121-7.34-1.657-13.88.824a19.277 19.277 0 0 0-10.309-.839c-8.903 1.697-15.212 9.225-15.742 17.87Z" clip-rule="evenodd"/></g><defs><radialGradient id="b" cx="0" cy="0" r="1" gradientTransform="matrix(30.6025 0 0 30.6024 21.069 12.197)" gradientUnits="userSpaceOnUse"><stop stop-color="#03839E"/><stop offset="1" stop-color="#004250"/></radialGradient><clipPath id="a"><path fill="#fff" d="M0 .087h47.673v39.826H0z"/></clipPath></defs></svg>